<svg width="48" height="48" viewBox="0 0 48 48" fill="none" xmlns="http://www.w3.org/2000/svg">
<path d="M36 4.84288e-06C33.342 0.000766722 30.7003 0.415746 28.17 1.23001C26.8269 1.6958 25.4209 1.95542 24 2.00001C22.5791 1.95542 21.1731 1.6958 19.83 1.23001C17.2997 0.416 14.658 0.00102719 12 4.84288e-06C10.4079 -0.0603504 8.82057 0.208752 7.33735 0.790451C5.85414 1.37215 4.50704 2.25391 3.38047 3.38047C2.25391 4.50704 1.37215 5.85414 0.790451 7.33735C0.208752 8.82057 -0.0603504 10.4079 4.84288e-06 12C4.84288e-06 24.886 6.71001 37.572 11.536 45.77C12.0444 46.6276 12.8203 47.2945 13.7446 47.6682C14.6689 48.0418 15.6903 48.1016 16.6518 47.8383C17.6134 47.5749 18.4618 47.0031 19.0667 46.2106C19.6716 45.4182 19.9995 44.449 20 43.452V30.214C19.9784 29.2403 20.3 28.29 20.9084 27.5295C21.5168 26.769 22.3733 26.2467 23.328 26.054C23.9021 25.9562 24.4907 25.9849 25.0526 26.1381C25.6145 26.2914 26.1361 26.5655 26.581 26.9413C27.026 27.3171 27.3835 27.7855 27.6286 28.3138C27.8737 28.8421 28.0004 29.4176 28 30V43.452C28.0005 44.449 28.3284 45.4182 28.9333 46.2106C29.5382 47.0031 30.3866 47.5749 31.3482 47.8383C32.3097 48.1016 33.3311 48.0418 34.2554 47.6682C35.1797 47.2945 35.9556 46.6276 36.464 45.77C41.292 37.57 48 24.884 48 12C48.0604 10.4079 47.7913 8.82057 47.2096 7.33735C46.6279 5.85414 45.7461 4.50704 44.6195 3.38047C43.493 2.25391 42.1459 1.37215 40.6627 0.790451C39.1794 0.208752 37.5921 -0.0603504 36 4.84288e-06Z" fill="#003B5B"/>
</svg>
