<svg width="48" height="48" viewBox="0 0 48 48" fill="none" xmlns="http://www.w3.org/2000/svg">
<g clip-path="url(#clip0_4590_8586)">
<path d="M23.896 48.0181L23.188 47.7041C22.4 47.3581 4 39.0481 4 24.0001V10.9521C4.0007 9.69641 4.39757 8.47298 5.13408 7.45601C5.87059 6.43904 6.9092 5.68038 8.102 5.28807L24 0.0180664L39.898 5.28807C41.0908 5.68038 42.1294 6.43904 42.8659 7.45601C43.6024 8.47298 43.9993 9.69641 44 10.9521V24.0001C44 41.1541 25.424 47.5101 24.632 47.7741L23.896 48.0181ZM24 4.21207L9.368 9.06407C8.96989 9.1941 8.62314 9.44678 8.37741 9.78592C8.13168 10.1251 7.99957 10.5333 8 10.9521V24.0001C8 34.9881 20.88 42.1161 24.094 43.7221C27.302 42.4321 40 36.5261 40 24.0001V10.9521C40.0004 10.5333 39.8683 10.1251 39.6226 9.78592C39.3769 9.44678 39.0301 9.1941 38.632 9.06407L24 4.21207Z" fill="#006063"/>
<path d="M22.222 29.0842H22.156C21.6498 29.0764 21.1504 28.9661 20.688 28.7598C20.2257 28.5536 19.81 28.2557 19.466 27.8842L14.854 23.0842L17.736 20.3202L22.224 25.0002L32.586 14.6382L35.414 17.4662L24.892 27.9882C24.5415 28.3384 24.1251 28.6155 23.6668 28.8037C23.2085 28.9918 22.7174 29.0871 22.222 29.0842Z" fill="#006063"/>
</g>
<defs>
<clipPath id="clip0_4590_8586">
<rect width="48" height="48" fill="white"/>
</clipPath>
</defs>
</svg>
