<svg width="48" height="48" viewBox="0 0 48 48" fill="none" xmlns="http://www.w3.org/2000/svg">
<path d="M23.9999 24C30.6179 24 35.9999 18.618 35.9999 12C35.9999 5.382 30.6179 0 23.9999 0C17.3819 0 11.9999 5.382 11.9999 12C11.9999 18.618 17.3819 24 23.9999 24ZM23.9999 4C28.4119 4 31.9999 7.588 31.9999 12C31.9999 16.412 28.4119 20 23.9999 20C19.5879 20 15.9999 16.412 15.9999 12C15.9999 7.588 19.5879 4 23.9999 4ZM35.9999 48H31.9999C31.9999 43.588 28.4119 40 23.9999 40C19.5879 40 15.9999 43.588 15.9999 48H11.9999C11.9999 41.382 17.3819 36 23.9999 36C30.6179 36 35.9999 41.382 35.9999 48ZM44.9999 48H41.0779L37.1479 35.076C36.2939 32.088 33.5259 30 30.4179 30H17.7119C14.6039 30 11.8359 32.088 10.9799 35.076L7.48193 48H3.12793L7.13393 33.978C8.47593 29.28 12.8259 26 17.7119 26H30.4179C35.3019 26 39.6519 29.28 40.9959 33.978L44.9999 48Z" fill="#45005E"/>
</svg>
