<svg width="48" height="48" viewBox="0 0 48 48" fill="none" xmlns="http://www.w3.org/2000/svg">
<path d="M11 34C12.6569 34 14 32.6569 14 31C14 29.3431 12.6569 28 11 28C9.34315 28 8 29.3431 8 31C8 32.6569 9.34315 34 11 34Z" fill="#515500"/>
<path d="M42 6H6C4.4087 6 2.88258 6.63214 1.75736 7.75736C0.632141 8.88258 0 10.4087 0 12L0 42H48V12C48 10.4087 47.3679 8.88258 46.2426 7.75736C45.1174 6.63214 43.5913 6 42 6ZM6 10H42C42.5304 10 43.0391 10.2107 43.4142 10.5858C43.7893 10.9609 44 11.4696 44 12V16H4V12C4 11.4696 4.21071 10.9609 4.58579 10.5858C4.96086 10.2107 5.46957 10 6 10ZM4 38V20H44V38H4Z" fill="#515500"/>
</svg>
