<svg width="44" height="44" viewBox="0 0 44 44" fill="none" xmlns="http://www.w3.org/2000/svg">
<path d="M22.0233 43.9997C21.072 44.0111 20.1425 43.7145 19.3739 43.1541C18.6054 42.5938 18.0392 41.8 17.76 40.8914L14.2057 29.789L3.05624 26.0626C2.15636 25.7621 1.37538 25.1837 0.826093 24.4109C0.27681 23.638 -0.0123406 22.7108 0.000403901 21.7631C0.0131484 20.8154 0.327128 19.8962 0.896995 19.1384C1.46686 18.3806 2.26311 17.8234 3.17075 17.5472L14.2321 14.1727L17.9582 3.05491C18.2352 2.14171 18.8083 1.34641 19.5872 0.794083C20.3661 0.241761 21.3068 -0.0362447 22.2612 0.00379076C23.2127 0.00507806 24.1383 0.314171 24.8993 0.884806C25.6603 1.45544 26.2158 2.25693 26.4827 3.1693L29.8564 14.2013L40.9332 17.7429C41.8266 18.0423 42.6034 18.6145 43.1537 19.3786C43.7039 20.1428 44 21.0604 44 22.0017C44 22.9431 43.7039 23.8607 43.1537 24.6248C42.6034 25.389 41.8266 25.9612 40.9332 26.2605L29.8366 29.8066L26.2867 40.8914C26.0075 41.8 25.4413 42.5938 24.6728 43.1541C23.9042 43.7145 22.9747 44.0111 22.0233 43.9997Z" fill="#003B5B"/>
</svg>
