<svg width="48" height="48" viewBox="0 0 48 48" fill="none" xmlns="http://www.w3.org/2000/svg">
<g clip-path="url(#clip0_4590_8603)">
<path d="M24 0C10.766 0 0 10.766 0 24C0 37.234 10.766 48 24 48H48V24C48 10.766 37.234 0 24 0ZM44 44H24C12.972 44 4 35.028 4 24C4 12.972 12.972 4 24 4C35.028 4 44 12.972 44 24V44ZM31.874 16.566C32.47 19.962 30.856 23.358 27.856 25.01C26.92 25.528 26 27.262 26 28.514V30H22V28.514C22 26.136 23.468 22.864 25.924 21.508C27.452 20.666 28.24 18.998 27.934 17.258C27.658 15.686 26.314 14.342 24.74 14.066C23.528 13.852 22.352 14.16 21.43 14.934C20.52 15.698 20 16.814 20 18H16C16 15.63 17.042 13.396 18.858 11.872C20.674 10.348 23.076 9.722 25.432 10.126C28.658 10.692 31.308 13.34 31.874 16.568V16.566ZM22 34H26V38H22V34Z" fill="#001950"/>
</g>
<defs>
<clipPath id="clip0_4590_8603">
<rect width="48" height="48" fill="white"/>
</clipPath>
</defs>
</svg>
