<svg width="48" height="48" viewBox="0 0 48 48" fill="none" xmlns="http://www.w3.org/2000/svg">
<path fill-rule="evenodd" clip-rule="evenodd" d="M7.33644 0.790542C8.81965 0.208844 10.4075 -0.059852 11.9995 0.000502798C14.6576 0.00152515 17.2993 0.41599 19.8296 1.23C21.1727 1.69578 22.5786 1.95591 23.9995 2.0005C25.4204 1.95592 26.8263 1.69578 28.1694 1.23C30.6997 0.415738 33.3415 0.00126704 35.9995 0.000502798C37.5916 -0.0598525 39.1794 0.208843 40.6626 0.790542C42.1456 1.3722 43.4922 2.25404 44.6187 3.38039C45.7452 4.50695 46.6278 5.8542 47.2095 7.33742C47.7911 8.82059 48.0599 10.4085 47.9995 12.0005C47.9994 24.8843 41.2913 37.5701 36.4634 45.77C35.9551 46.6275 35.1795 47.2948 34.2554 47.6685C33.3312 48.0421 32.3096 48.1016 31.3482 47.8384C30.3866 47.5751 29.538 47.0029 28.9331 46.2105C28.3282 45.418 28 44.4486 27.9995 43.4517V30.0005C27.9999 29.4182 27.8735 28.8422 27.6284 28.314C27.3833 27.7857 27.0255 27.3167 26.5806 26.9409C26.1357 26.5652 25.614 26.2914 25.0523 26.1382C24.4904 25.985 23.9018 25.9564 23.3277 26.0542C22.373 26.2469 21.5161 26.7693 20.9077 27.5298C20.3375 28.2427 20.0193 29.1224 19.9995 30.0318V43.4517C19.9991 44.4486 19.6708 45.418 19.0659 46.2105C18.4611 47.0028 17.6132 47.575 16.6519 47.8384C15.6903 48.1017 14.6679 48.0421 13.7437 47.6685C12.8196 47.2948 12.044 46.6275 11.5357 45.77C6.70972 37.5721 -0.000312501 24.8863 -0.000475398 12.0005C-0.0608283 10.4085 0.207912 8.82058 0.789564 7.33742C1.37126 5.8542 2.25382 4.50695 3.38038 3.38039C4.5068 2.25404 5.85349 1.3722 7.33644 0.790542ZM22.0005 6.0005V12.0005H16.0005V16.0005H22.0005V22.0005H26.0005V16.0005H32.0005V12.0005H26.0005V6.0005H22.0005Z" fill="#003B5B"/>
</svg>
