<svg width="48" height="48" viewBox="0 0 48 48" fill="none" xmlns="http://www.w3.org/2000/svg">
<path d="M32.53 1.00001C30.6197 0.940764 28.714 1.21834 26.9 1.82001C25.0301 2.5202 22.9699 2.5202 21.1 1.82001C19.286 1.21834 17.3803 0.940764 15.47 1.00001C8 1.00001 8 8.13001 8 10.16C8 15.72 11.72 18.72 12.46 23.32C12.5367 23.7933 12.7808 24.2232 13.1479 24.5316C13.515 24.84 13.9806 25.0062 14.46 25H33.57C34.0494 25.0062 34.515 24.84 34.8821 24.5316C35.2492 24.2232 35.4933 23.7933 35.57 23.32C36.27 18.77 40 15.66 40 10.16C40 8.13001 40 1.00001 32.53 1.00001Z" fill="#003B5B"/>
<path d="M17.44 43.1999C20.29 45.5799 21.44 46.9999 24 46.9999C26.56 46.9999 27.8 45.4999 30.56 43.1999C30.9205 42.8988 31.2252 42.5366 31.46 42.1299C15 42.9999 16.86 42.7099 17.44 43.1999Z" fill="#003B5B"/>
<path d="M34.0001 38.0001L32.0001 38.1001V37.1001L16.0001 37.9001V38.9001L14.0001 39.0001C13.8688 39.0067 13.74 39.039 13.6212 39.0954C13.5024 39.1517 13.3958 39.2308 13.3076 39.3283C13.2194 39.4258 13.1513 39.5398 13.1071 39.6636C13.0629 39.7874 13.0435 39.9188 13.0501 40.0501C13.0566 40.1814 13.089 40.3102 13.1453 40.429C13.2017 40.5478 13.2808 40.6543 13.3783 40.7426C13.5752 40.9207 13.8349 41.0134 14.1001 41.0001L34.1001 40.0001C34.3653 39.9868 34.6144 39.8688 34.7925 39.6719C34.9707 39.4749 35.0633 39.2153 35.0501 38.9501C35.0368 38.6849 34.9187 38.4358 34.7218 38.2576C34.5249 38.0795 34.2653 37.9868 34.0001 38.0001Z" fill="#003B5B"/>
<path d="M34.0001 33.0001L32.0001 33.1001V32.1001L16.0001 32.9001V33.9001L14.0001 34.0001C13.8688 34.0067 13.74 34.039 13.6212 34.0954C13.5024 34.1517 13.3958 34.2308 13.3076 34.3283C13.2194 34.4258 13.1513 34.5398 13.1071 34.6636C13.0629 34.7874 13.0435 34.9188 13.0501 35.0501C13.0566 35.1814 13.089 35.3102 13.1453 35.429C13.2017 35.5478 13.2808 35.6543 13.3783 35.7426C13.5752 35.9207 13.8349 36.0134 14.1001 36.0001L34.1001 35.0001C34.3653 34.9868 34.6144 34.8688 34.7925 34.6719C34.9707 34.4749 35.0633 34.2153 35.0501 33.9501C35.0368 33.6849 34.9187 33.4358 34.7218 33.2576C34.5249 33.0795 34.2653 32.9868 34.0001 33.0001Z" fill="#003B5B"/>
<path d="M34.0001 28L32.0001 28.1V27H16.0001V28.9L14.0001 29C13.7349 29.0133 13.4858 29.1313 13.3076 29.3282C13.1295 29.5252 13.0368 29.7848 13.0501 30.05C13.0633 30.3152 13.1814 30.5643 13.3783 30.7425C13.5752 30.9206 13.8349 31.0133 14.1001 31L34.1001 30C34.3653 29.9867 34.6144 29.8687 34.7925 29.6718C34.9707 29.4748 35.0633 29.2152 35.0501 28.95C35.0368 28.6848 34.9187 28.4357 34.7218 28.2575C34.5249 28.0794 34.2653 27.9867 34.0001 28Z" fill="#003B5B"/>
</svg>
