<svg width="1504" height="211" viewBox="0 0 1504 211" fill="none" xmlns="http://www.w3.org/2000/svg">
<path d="M13.4286 194.996C13.4286 166.06 13.4286 124.412 13.4286 95.4762C13.4286 95.4762 18.6802 95.4762 27.1485 95.4762C47.1702 95.4156 67.1919 95.4762 87.2137 95.4762C96.7979 95.4762 101.787 90.936 101.787 82.0979C101.787 63.8163 102.049 31.6727 101.721 13.3911L116.951 13.3906C137.695 13.8144 158.504 13.5117 179.314 13.5117C187.585 13.5117 192.837 13.511 192.837 13.511C192.902 32.0953 192.837 63.0899 192.837 81.6742C192.837 90.9361 197.694 95.4157 207.672 95.4157C229.007 95.4157 250.342 95.4157 271.676 95.4157C278.044 95.4157 286.506 95.4157 286.506 95.4157C286.309 96.7474 280.276 106.736 279.554 107.946C257.957 144.631 236.294 181.315 214.696 217.999C211.086 224.174 209.622 227.201 209.622 227.201C185.793 227.201 134.6 227.313 110.771 227.313C110.771 227.313 114.128 221.571 118.264 214.549C138.351 180.407 158.242 146.205 178.723 112.305C184.368 102.922 179.642 97.1712 169.073 97.5344C152.596 98.1397 136.054 97.716 119.511 97.716C109.139 97.716 104.216 102.317 104.216 111.821C104.216 168.239 104.216 224.598 104.281 281.016C104.281 286.041 104.281 294.523 104.281 294.523C104.281 294.523 93.7126 294.455 91.5463 294.455C69.7521 294.576 35.2228 294.516 13.4286 294.516C13.4286 294.516 13.4286 289.673 13.4286 282.711C13.4286 253.473 13.4286 224.234 13.4286 194.996Z" fill="white"/>
<path d="M661.941 294.609H602.863V95.7207H661.941V294.609Z" fill="white"/>
<path d="M1005.42 151.123L1042.49 95.7207H1107.78L1040.49 195.162L1107.78 294.609H1042.49L1005.42 239.206L968.359 294.609H902.783L970.07 195.162L902.783 95.7207H968.359L1005.42 151.123Z" fill="white"/>
<path fill-rule="evenodd" clip-rule="evenodd" d="M507.84 95.7207C606.469 96.0071 608.18 241.088 507.84 239.671H404.018V294.465H344.724V95.7207H507.84ZM404.018 189.702H507.84C528.076 189.698 528.361 145.693 507.27 145.69H404.018V189.702Z" fill="white"/>
<path d="M882.371 154.517H850.957C829.301 154.517 811.74 171.997 811.74 193.56V224.547H780.608C758.953 224.548 741.404 242.034 741.404 263.596V294.465H682.359V235.676H713.478C735.133 235.675 752.694 218.188 752.695 196.626V165.764H784.109C805.765 165.764 823.326 148.277 823.326 126.714V95.7207H882.371V154.517Z" fill="white"/>
<path d="M882.384 294.465H823.333V237.938C823.333 237.335 823.58 236.756 824.008 236.329C824.436 235.904 825.016 235.663 825.621 235.662H882.384V294.465Z" fill="white"/>
<path d="M1284.93 145.69H1187.47V170.112H1252.4V220.081H1187.92V244.496H1288.36V294.465H1128.57V95.7207H1284.93V145.69Z" fill="white"/>
<path d="M1431.23 195.096V95.7207H1490.57V294.465H1431.23L1365.05 195.096V294.465H1305.71V95.7207H1365.05L1431.23 195.096Z" fill="white"/>
<path d="M741.397 152.241C741.396 152.843 741.156 153.424 740.729 153.85C740.301 154.275 739.72 154.515 739.116 154.517H682.352V95.7207H741.397V152.241Z" fill="white"/>
</svg>
