<svg width="96" height="96" viewBox="0 0 96 96" fill="none" xmlns="http://www.w3.org/2000/svg">
<g clip-path="url(#clip0_4645_8978)">
<path d="M77.9682 50.184L52.2882 92.012C50.5602 94.612 48.0602 96.012 45.4922 96.012C44.4562 96.012 43.4082 95.784 42.4002 95.316C38.7002 93.604 36.9082 89.232 38.1442 84.916L42.9602 64.012H27.6402C23.3202 64.012 19.3842 61.64 17.3602 57.824C15.3362 54.008 15.5882 49.412 18.0122 45.84L43.6842 4.00397C46.1122 0.355971 50.0562 -0.928029 53.5762 0.699971C57.2762 2.41197 59.0682 6.78397 57.8322 11.1L53.0122 32.008L68.3442 32.02C72.6602 32.02 76.5962 34.392 78.6202 38.208C80.6402 42.02 80.3922 46.616 77.9682 50.188V50.184Z" fill="#7F00FF"/>
</g>
<defs>
<clipPath id="clip0_4645_8978">
<rect width="96" height="96" fill="white"/>
</clipPath>
</defs>
</svg>
