<svg width="48" height="48" viewBox="0 0 48 48" fill="none" xmlns="http://www.w3.org/2000/svg">
<path d="M48 37.0149V17.0112C47.9997 16.7924 47.9561 16.5759 47.8715 16.3741C47.787 16.1723 47.6633 15.9893 47.5076 15.8357C47.3519 15.682 47.1672 15.5608 46.9643 15.479C46.7614 15.3972 46.5443 15.3564 46.3256 15.3591H26.7014C26.1659 15.3583 25.6419 15.2045 25.1909 14.9157C24.74 14.627 24.381 14.2153 24.1563 13.7293L23.1516 11.5191L21.7898 8.57212C21.724 8.43356 21.6494 8.29934 21.5665 8.17026C21.0419 7.20809 20.267 6.40556 19.3239 5.84751C18.3807 5.28947 17.3043 4.99665 16.2084 5.00003H6.13954C5.33312 4.99944 4.53449 5.15784 3.78934 5.46618C3.0442 5.77451 2.36715 6.22672 1.79692 6.79695C1.22669 7.36717 0.774483 8.04422 0.46615 8.78937C0.157818 9.53452 -0.000585502 10.3331 1.62619e-06 11.1396V37.0149C-0.000585502 37.8213 0.157818 38.62 0.46615 39.3651C0.774483 40.1103 1.22669 40.7873 1.79692 41.3575C2.36715 41.9278 3.0442 42.38 3.78934 42.6883C4.53449 42.9966 5.33312 43.155 6.13954 43.1544H41.8605C42.6669 43.155 43.4655 42.9966 44.2107 42.6883C44.9558 42.38 45.6329 41.9278 46.2031 41.3575C46.7733 40.7873 47.2255 40.1103 47.5338 39.3651C47.8422 38.62 48.0006 37.8213 48 37.0149Z" fill="#FE5229"/>
<path d="M26.1873 12.8136C26.2364 12.9075 26.3102 12.9862 26.4007 13.0412C26.4911 13.0963 26.5949 13.1257 26.7008 13.1262H46.325C46.8787 13.1206 47.4271 13.2348 47.9325 13.4611C47.7279 11.9953 47.0009 10.6528 45.8851 9.68056C44.7693 8.70833 43.3398 8.17187 41.8599 8.16992H24.0664L25.1827 10.5811L26.1873 12.8136Z" fill="#FE5229"/>
</svg>
