<svg width="96" height="96" viewBox="0 0 96 96" fill="none" xmlns="http://www.w3.org/2000/svg">
<g clip-path="url(#clip0_4645_8912)">
<path d="M48 96H47.772C25.844 96 8 78.056 8 56C8 48.284 10.664 39.72 15.496 31.876C17.38 28.816 20.988 27.372 24.46 28.292C27.936 29.208 30.356 32.24 30.48 35.832C30.864 46.792 33.492 59.888 43.832 60.004C48.156 60.04 51.58 57.016 51.94 53.096C52.316 48.992 50.832 45.776 48.956 41.708C46.748 36.908 43.996 30.94 43.996 22.104C43.996 15.276 45.376 8.45596 46.744 4.72396C47.764 1.95196 50.168 0.131957 53.024 -0.0320434C55.98 -0.192043 58.68 1.43596 60.036 4.13596C63.244 10.516 67.788 16.412 72.18 22.116C80.068 32.364 88.224 42.96 88.004 56.064C88.004 77.92 70.072 95.864 48.028 95.996H48.004L48 96Z" fill="#FE5229"/>
</g>
<defs>
<clipPath id="clip0_4645_8912">
<rect width="96" height="96" fill="white"/>
</clipPath>
</defs>
</svg>
