<svg width="48" height="48" viewBox="0 0 48 48" fill="none" xmlns="http://www.w3.org/2000/svg">
<path d="M30 2.15192V15.6599C30 18.9079 27.568 21.8219 24.322 21.9919C20.862 22.1739 18 19.4219 18 15.9999V2.15192C18 0.543924 16.312 -0.456076 14.866 0.245924C7.29 3.92392 2 11.6199 2 20.1459C2 28.4379 6.59 35.9419 13.976 39.7299C15.204 40.3599 16 41.7239 16 43.2019V45.9979C16 47.1019 16.896 47.9979 18 47.9979H30C31.104 47.9979 32 47.1019 32 45.9979V43.2019C32 41.7239 32.794 40.3599 34.024 39.7299C41.41 35.9419 46 28.4379 46 20.1459C46 11.6199 40.71 3.92392 33.134 0.245924C31.688 -0.456076 30 0.545924 30 2.15192Z" fill="#FE5229"/>
</svg>
