<svg width="48" height="48" viewBox="0 0 48 48" fill="none" xmlns="http://www.w3.org/2000/svg">
<path d="M41.0513 12.3176L31.0642 1.98199C29.8461 0.751586 28.1411 0.0133219 26.1924 0.0133219H11.8205C8.16666 -0.232774 5 2.96635 5 6.65763V41.1096C5 44.8008 7.92308 48 11.8205 48H36.1795C39.8334 48 43 45.047 43 41.1096V16.9932C43 15.2706 42.2692 13.548 41.0513 12.3176ZM16.6923 19.4542H24C24.9745 19.4542 25.9487 20.1924 25.9487 21.4229C25.9487 22.6531 25.2179 23.3914 24 23.3914H16.6923C15.7179 23.3914 14.7436 22.6531 14.7436 21.4229C14.7436 20.1924 15.7179 19.4542 16.6923 19.4542ZM31.3076 33.235H16.6923C15.7179 33.235 14.7436 32.4967 14.7436 31.2662C14.7436 30.0358 15.4744 29.2975 16.6923 29.2975H31.3076C32.2821 29.2975 33.2563 30.0358 33.2563 31.2662C33.2563 32.4967 32.2821 33.235 31.3076 33.235Z" fill="#FE5229"/>
</svg>
