<svg width="48" height="48" viewBox="0 0 48 48" fill="none" xmlns="http://www.w3.org/2000/svg">
<path d="M43.232 5.70778L24.4042 0.0593438C24.1406 -0.0197812 23.8596 -0.0197812 23.5959 0.0593438L4.76772 5.70778C4.17297 5.88619 3.76562 6.43369 3.76562 7.05469V27.7656C3.76562 30.4594 4.85622 33.2169 7.00694 35.9617C8.64953 38.0579 10.9221 40.1629 13.7613 42.2182C18.5311 45.6708 23.2278 47.7888 23.4255 47.8772C23.6082 47.959 23.8041 48 24.0001 48C24.196 48 24.3919 47.9591 24.5747 47.8772C24.7722 47.7888 29.4689 45.6708 34.2386 42.2182C37.0778 40.1629 39.3503 38.0579 40.993 35.9617C43.1437 33.217 44.2341 30.4595 44.2341 27.7656V7.05469C44.2341 6.43369 43.827 5.88619 43.232 5.70778Z" fill="#FE5229"/>
</svg>
