<svg width="48" height="48" viewBox="0 0 48 48" fill="none" xmlns="http://www.w3.org/2000/svg">
<path d="M24 20.7997C37.2548 20.7997 48 17.218 48 12.7998C48 8.38151 37.2548 4.7998 24 4.7998C10.7452 4.7998 0 8.38151 0 12.7998C0 17.218 10.7452 20.7997 24 20.7997Z" fill="#FE5229"/>
<path d="M24 20.7997C37.2548 20.7997 48 17.218 48 12.7998C48 8.38151 37.2548 4.7998 24 4.7998C10.7452 4.7998 0 8.38151 0 12.7998C0 17.218 10.7452 20.7997 24 20.7997Z" fill="#FE5229"/>
<path d="M42.4884 23.0105C37.4788 24.6803 30.9129 25.5999 24 25.5999C17.0871 25.5999 10.5211 24.6803 5.51156 23.0105C3.219 22.2463 1.41441 21.3778 0 20.4565V23.8399C0 25.9767 2.49628 27.9858 7.02947 29.4967C11.5624 31.0077 17.5893 31.84 24 31.84C30.4107 31.84 36.4376 31.0078 40.9705 29.4968C45.5035 27.9858 48 25.9767 48 23.8399V20.4565C46.5856 21.3778 44.781 22.2461 42.4884 23.0105Z" fill="#FE5229"/>
<path d="M42.4884 34.0504C37.479 35.7202 30.9129 36.6399 24 36.6399C17.0871 36.6399 10.521 35.7202 5.51156 34.0503C3.21891 33.2862 1.41431 32.4179 0 31.4966V35.2C0 39.6181 10.7452 43.1999 24 43.1999C37.2548 43.1999 48 39.6181 48 35.1999V31.4967C46.5858 32.4178 44.7811 33.2863 42.4884 34.0504Z" fill="#FE5229"/>
</svg>
